<svg xmlns="http://www.w3.org/2000/svg" xmlns:xlink="http://www.w3.org/1999/xlink" version="1.1" x="0px" y="0px" viewBox="0 0 100 125" enable-background="new 0 0 100 100" xml:space="preserve"><path d="M73,66V50c0-10.653-7.281-19.635-17.128-22.237C56.574,26.673,57,25.39,57,24c0-3.86-3.141-7-7-7c-3.86,0-7,3.14-7,7  c0,1.388,0.414,2.678,1.115,3.766C34.275,30.373,27,39.351,27,50v16c-2.757,0-5,2.243-5,5s2.243,5,5,5h14.224  c0.912,4.003,4.501,7,8.776,7c4.275,0,7.863-2.997,8.775-7H73c2.757,0,5-2.243,5-5S75.757,66,73,66z M73,73H27c-1.103,0-2-0.896-2-2  s0.897-2,2-2h46c1.104,0,2,0.896,2,2S74.104,73,73,73z M50,80c-2.967,0-5.431-2.167-5.91-5h11.82C55.432,77.833,52.967,80,50,80z   M46,24c0-2.206,1.794-4,4-4s4,1.794,4,4c0,1.275-0.611,2.4-1.543,3.133c-1.664-0.177-3.249-0.177-4.914,0  C46.611,26.4,46,25.275,46,24z M50,30c11.027,0,20,8.972,20,20v17H30V50C30,38.972,38.972,30,50,30z M33.364,46.499  c0.105-0.501,0.234-1.003,0.384-1.491c0.391-1.264,2.299-0.678,1.912,0.588c-0.132,0.43-0.245,0.868-0.338,1.313  C35.049,48.211,33.092,47.801,33.364,46.499z M35.177,41.677c2.407-4.279,6.534-7.309,11.322-8.313  c1.293-0.271,1.71,1.683,0.411,1.957c-4.223,0.885-7.864,3.559-9.989,7.336C36.276,43.798,34.521,42.846,35.177,41.677z"/><text x="0" y="115" fill="#000000" font-size="5px" font-weight="bold" font-family="'Helvetica Neue', Helvetica, Arial-Unicode, Arial, Sans-serif">Created by Setyo Ari Wibowo</text><text x="0" y="120" fill="#000000" font-size="5px" font-weight="bold" font-family="'Helvetica Neue', Helvetica, Arial-Unicode, Arial, Sans-serif">from the Noun Project</text></svg>