<?xml version="1.0" encoding="UTF-8" standalone="no"?>
<svg
   xmlns:dc="http://purl.org/dc/elements/1.1/"
   xmlns:cc="http://creativecommons.org/ns#"
   xmlns:rdf="http://www.w3.org/1999/02/22-rdf-syntax-ns#"
   xmlns:svg="http://www.w3.org/2000/svg"
   xmlns="http://www.w3.org/2000/svg"
   xmlns:sodipodi="http://sodipodi.sourceforge.net/DTD/sodipodi-0.dtd"
   xmlns:inkscape="http://www.inkscape.org/namespaces/inkscape"
   width="24"
   height="24"
   viewBox="0 0 24 24"
   fill="none"
   version="1.1"
   id="svg80"
   sodipodi:docname="arrow-clockwise.svg"
   inkscape:version="1.0.2 (e86c8708, 2021-01-15)">
  <metadata
     id="metadata86">
    <rdf:RDF>
      <cc:Work
         rdf:about="">
        <dc:format>image/svg+xml</dc:format>
        <dc:type
           rdf:resource="http://purl.org/dc/dcmitype/StillImage" />
      </cc:Work>
    </rdf:RDF>
  </metadata>
  <defs
     id="defs84" />
  <sodipodi:namedview
     pagecolor="#ffffff"
     bordercolor="#666666"
     borderopacity="1"
     objecttolerance="10"
     gridtolerance="10"
     guidetolerance="10"
     inkscape:pageopacity="0"
     inkscape:pageshadow="2"
     inkscape:window-width="689"
     inkscape:window-height="480"
     id="namedview82"
     showgrid="false"
     inkscape:zoom="30.625"
     inkscape:cx="12"
     inkscape:cy="12"
     inkscape:window-x="0"
     inkscape:window-y="25"
     inkscape:window-maximized="0"
     inkscape:current-layer="svg80" />
  <path
     id="path76"
     style="color:#000000;font-style:normal;font-variant:normal;font-weight:normal;font-stretch:normal;font-size:medium;line-height:normal;font-family:sans-serif;font-variant-ligatures:normal;font-variant-position:normal;font-variant-caps:normal;font-variant-numeric:normal;font-variant-alternates:normal;font-variant-east-asian:normal;font-feature-settings:normal;font-variation-settings:normal;text-indent:0;text-align:start;text-decoration:none;text-decoration-line:none;text-decoration-style:solid;text-decoration-color:#000000;letter-spacing:normal;word-spacing:normal;text-transform:none;writing-mode:lr-tb;direction:ltr;text-orientation:mixed;dominant-baseline:auto;baseline-shift:baseline;text-anchor:start;white-space:normal;shape-padding:0;shape-margin:0;inline-size:0;clip-rule:nonzero;display:inline;overflow:visible;visibility:visible;isolation:auto;mix-blend-mode:normal;color-interpolation:sRGB;color-interpolation-filters:linearRGB;solid-color:#000000;solid-opacity:1;vector-effect:none;fill:#000000;fill-opacity:1;fill-rule:nonzero;stroke:none;stroke-linecap:round;stroke-linejoin:round;stroke-miterlimit:4;stroke-dasharray:none;stroke-dashoffset:0;stroke-opacity:1;color-rendering:auto;image-rendering:auto;shape-rendering:auto;text-rendering:auto;enable-background:accumulate;stop-color:#000000;stop-opacity:1;opacity:1"
     d="m 11.556641,2.0039062 c -0.260573,0.00764 -0.520473,0.026074 -0.779297,0.054688 C 9.7420484,2.1730474 8.7248973,2.4549445 7.765625,2.8984375 5.8470886,3.7854137 4.2621545,5.2727589 3.2402344,7.140625 2.2183168,9.0084976 1.8117323,11.15935 2.0800781,13.277344 c 0.2683462,2.117997 1.1964559,4.093758 2.6523438,5.638672 a 1.0001,1.0001 0 0 0 0.00195,0 c 1.4559174,1.544845 3.3629358,2.576569 5.441406,2.939453 2.078495,0.362766 4.217866,0.03669 6.09961,-0.927735 1.881748,-0.964431 3.406139,-2.516196 4.353515,-4.423828 a 1,1 0 0 0 -0.449218,-1.339844 1,1 0 0 0 -1.341797,0.451172 c -0.759224,1.528769 -1.977358,2.765833 -3.47461,3.533204 -1.497256,0.767371 -3.193444,1.024361 -4.84375,0.736328 C 8.8693021,19.596649 7.3523757,18.778876 6.1894531,17.544922 5.026481,16.310835 4.2799669,14.726394 4.0644531,13.025391 3.8489389,11.324385 4.1755182,9.5978499 4.9941406,8.1015625 5.8127605,6.6052886 7.0795451,5.4183544 8.6054688,4.7128906 10.131404,4.0074166 11.834987,3.820531 13.472656,4.1757812 15.1264,4.5345097 16.422079,5.3112773 17.550781,6.609375 a 1.0001,1.0001 0 0 0 0.0293,0.03125 c 0.06655,0.070191 0.294459,0.3322043 0.554688,0.7089844 L 15.246094,6.828125 a 1,1 0 0 0 -1.16211,0.8085938 1,1 0 0 0 0.808594,1.1601562 l 5.039063,0.90625 a 1.0001,1.0001 0 0 0 1.162109,-0.8125 l 0.890625,-5.1308594 a 1,1 0 0 0 -0.8125,-1.15625 1,1 0 0 0 -0.167969,-0.013672 1,1 0 0 0 -0.988281,0.828125 l -0.4375,2.5078124 C 19.34,5.6099417 19.137263,5.3830149 19.041016,5.28125 17.665236,3.706758 15.936307,2.6627557 13.898438,2.2207031 13.125063,2.0529394 12.338357,1.9809783 11.556641,2.0039062 Z" />
</svg>
