<?xml version="1.0" encoding="UTF-8" standalone="no"?>
<svg
   xmlns:dc="http://purl.org/dc/elements/1.1/"
   xmlns:cc="http://creativecommons.org/ns#"
   xmlns:rdf="http://www.w3.org/1999/02/22-rdf-syntax-ns#"
   xmlns:svg="http://www.w3.org/2000/svg"
   xmlns="http://www.w3.org/2000/svg"
   xmlns:sodipodi="http://sodipodi.sourceforge.net/DTD/sodipodi-0.dtd"
   xmlns:inkscape="http://www.inkscape.org/namespaces/inkscape"
   width="24"
   height="24"
   viewBox="0 0 24 24"
   fill="none"
   version="1.1"
   id="svg34"
   sodipodi:docname="cloud-download.svg"
   inkscape:version="1.0.2 (e86c8708, 2021-01-15)">
  <metadata
     id="metadata40">
    <rdf:RDF>
      <cc:Work
         rdf:about="">
        <dc:format>image/svg+xml</dc:format>
        <dc:type
           rdf:resource="http://purl.org/dc/dcmitype/StillImage" />
      </cc:Work>
    </rdf:RDF>
  </metadata>
  <defs
     id="defs38" />
  <sodipodi:namedview
     pagecolor="#ffffff"
     bordercolor="#666666"
     borderopacity="1"
     objecttolerance="10"
     gridtolerance="10"
     guidetolerance="10"
     inkscape:pageopacity="0"
     inkscape:pageshadow="2"
     inkscape:window-width="689"
     inkscape:window-height="480"
     id="namedview36"
     showgrid="false"
     inkscape:zoom="24.625"
     inkscape:cx="12"
     inkscape:cy="12"
     inkscape:window-x="0"
     inkscape:window-y="25"
     inkscape:window-maximized="0"
     inkscape:current-layer="svg34" />
  <path
     id="path30"
     style="color:#000000;font-style:normal;font-variant:normal;font-weight:normal;font-stretch:normal;font-size:medium;line-height:normal;font-family:sans-serif;font-variant-ligatures:normal;font-variant-position:normal;font-variant-caps:normal;font-variant-numeric:normal;font-variant-alternates:normal;font-variant-east-asian:normal;font-feature-settings:normal;font-variation-settings:normal;text-indent:0;text-align:start;text-decoration:none;text-decoration-line:none;text-decoration-style:solid;text-decoration-color:#000000;letter-spacing:normal;word-spacing:normal;text-transform:none;writing-mode:lr-tb;direction:ltr;text-orientation:mixed;dominant-baseline:auto;baseline-shift:baseline;text-anchor:start;white-space:normal;shape-padding:0;shape-margin:0;inline-size:0;clip-rule:nonzero;display:inline;overflow:visible;visibility:visible;isolation:auto;mix-blend-mode:normal;color-interpolation:sRGB;color-interpolation-filters:linearRGB;solid-color:#000000;solid-opacity:1;vector-effect:none;fill:#000000;fill-opacity:1;fill-rule:nonzero;stroke:none;stroke-linecap:round;stroke-linejoin:round;stroke-miterlimit:4;stroke-dasharray:none;stroke-dashoffset:0;stroke-opacity:1;color-rendering:auto;image-rendering:auto;shape-rendering:auto;text-rendering:auto;enable-background:accumulate;stop-color:#000000;stop-opacity:1;opacity:1"
     d="M 10.5,1 C 6.9254487,1 4.0075923,3.9169517 4.0019531,7.4902344 2.2507585,8.2708529 1,9.9702095 1,12 c 0,2.749549 2.2504084,5 5,5 H 7 A 1,1 0 0 0 8,16 1,1 0 0 0 7,15 H 6 C 4.3313116,15 3,13.668651 3,12 3,10.921101 3.6541205,10.114206 4.4980469,9.5859375 4.5794405,9.7913614 4.5210986,9.8193046 4.6523438,10.029297 A 1,1 0 0 0 6.0292969,10.347656 1,1 0 0 0 6.3476562,8.9707031 C 6.2395108,8.7976704 6.0326966,7.993121 6.0253906,7.9648438 6.0097035,7.8119166 6,7.6576556 6,7.5 6,5.0028686 8.0028686,3 10.5,3 c 1.732899,0 3.045794,1.0942668 3.798828,2.5175781 l -0.0625,0.017578 a 1,1 0 0 0 -0.701172,1.2285157 1,1 0 0 0 1.228516,0.7011719 l 1.294922,-0.3535157 0.01758,-0.00391 C 16.371866,7.0375829 16.680701,7 17,7 c 2.220954,0 4,1.7790266 4,4 0,2.22095 -1.77905,4 -4,4 a 1,1 0 0 0 -1,1 1,1 0 0 0 1,1 c 3.30185,0 6,-2.69815 6,-6 C 23,7.6981334 20.301846,5 17,5 16.806104,5 16.625252,5.048305 16.435547,5.0664062 15.460142,2.7019782 13.204804,1 10.5,1 Z M 12,11 a 1,1 0 0 0 -1,1 v 7.585938 L 9.7070312,18.292969 a 1,1 0 0 0 -1.4140624,0 1,1 0 0 0 0,1.414062 l 2.9609372,2.958985 a 1,1 0 0 0 0.01172,0.01172 1,1 0 0 0 0.01953,0.02148 l 0.0078,0.0078 a 1,1 0 0 0 0.0098,0.0098 1,1 0 0 0 0.05274,0.04687 1,1 0 0 0 0.05273,0.04102 1,1 0 0 0 0.04492,0.0332 1,1 0 0 0 0.02344,0.01367 1,1 0 0 0 0.0332,0.01953 1,1 0 0 0 0.05664,0.0293 1,1 0 0 0 0.07227,0.03125 1,1 0 0 0 0.01172,0.0039 1,1 0 0 0 0.06445,0.02344 1,1 0 0 0 0.03516,0.0078 1,1 0 0 0 0.04102,0.0098 1,1 0 0 0 0.04101,0.0078 1,1 0 0 0 0.02734,0.0059 1,1 0 0 0 0.0098,0 1,1 0 0 0 0.07422,0.0078 A 1,1 0 0 0 12,23 a 1,1 0 0 0 0.0293,-0.002 1,1 0 0 0 0.03711,-0.002 1,1 0 0 0 0.01758,0 1,1 0 0 0 0.0625,-0.0078 1,1 0 0 0 0.07617,-0.01367 1,1 0 0 0 0.05859,-0.01563 1,1 0 0 0 0.02148,-0.0059 1,1 0 0 0 0.02734,-0.0098 1,1 0 0 0 0.0078,-0.002 1,1 0 0 0 0.07031,-0.0293 1,1 0 0 0 0.05078,-0.02344 1,1 0 0 0 0.01563,-0.0098 1,1 0 0 0 0.0098,-0.0039 1,1 0 0 0 0.04687,-0.02734 1,1 0 0 0 0.02344,-0.01563 1,1 0 0 0 0.04883,-0.03516 1,1 0 0 0 0.01953,-0.01563 1,1 0 0 0 0.04297,-0.03516 1,1 0 0 0 0.01172,-0.01172 1,1 0 0 0 0.0098,-0.0078 1,1 0 0 0 0.0293,-0.0293 1,1 0 0 0 0.0293,-0.03125 l 2.960937,-2.958985 a 1,1 0 0 0 0,-1.414062 1,1 0 0 0 -1.414062,0 L 13,19.585938 V 12 a 1,1 0 0 0 -1,-1 z" />
</svg>
