<?xml version="1.0" encoding="UTF-8" standalone="no"?>
<svg
   xmlns:dc="http://purl.org/dc/elements/1.1/"
   xmlns:cc="http://creativecommons.org/ns#"
   xmlns:rdf="http://www.w3.org/1999/02/22-rdf-syntax-ns#"
   xmlns:svg="http://www.w3.org/2000/svg"
   xmlns="http://www.w3.org/2000/svg"
   xmlns:sodipodi="http://sodipodi.sourceforge.net/DTD/sodipodi-0.dtd"
   xmlns:inkscape="http://www.inkscape.org/namespaces/inkscape"
   width="24"
   height="24"
   viewBox="0 0 24 24"
   fill="none"
   version="1.1"
   id="svg1098"
   sodipodi:docname="copy.svg"
   inkscape:version="1.0.2 (e86c8708, 2021-01-15)">
  <metadata
     id="metadata1104">
    <rdf:RDF>
      <cc:Work
         rdf:about="">
        <dc:format>image/svg+xml</dc:format>
        <dc:type
           rdf:resource="http://purl.org/dc/dcmitype/StillImage" />
      </cc:Work>
    </rdf:RDF>
  </metadata>
  <defs
     id="defs1102" />
  <sodipodi:namedview
     pagecolor="#ffffff"
     bordercolor="#666666"
     borderopacity="1"
     objecttolerance="10"
     gridtolerance="10"
     guidetolerance="10"
     inkscape:pageopacity="0"
     inkscape:pageshadow="2"
     inkscape:window-width="689"
     inkscape:window-height="480"
     id="namedview1100"
     showgrid="false"
     inkscape:zoom="24.625"
     inkscape:cx="12"
     inkscape:cy="12"
     inkscape:window-x="0"
     inkscape:window-y="25"
     inkscape:window-maximized="0"
     inkscape:current-layer="svg1098" />
  <path
     id="path1096"
     style="color:#000000;font-style:normal;font-variant:normal;font-weight:normal;font-stretch:normal;font-size:medium;line-height:normal;font-family:sans-serif;font-variant-ligatures:normal;font-variant-position:normal;font-variant-caps:normal;font-variant-numeric:normal;font-variant-alternates:normal;font-variant-east-asian:normal;font-feature-settings:normal;font-variation-settings:normal;text-indent:0;text-align:start;text-decoration:none;text-decoration-line:none;text-decoration-style:solid;text-decoration-color:#000000;letter-spacing:normal;word-spacing:normal;text-transform:none;writing-mode:lr-tb;direction:ltr;text-orientation:mixed;dominant-baseline:auto;baseline-shift:baseline;text-anchor:start;white-space:normal;shape-padding:0;shape-margin:0;inline-size:0;clip-rule:nonzero;display:inline;overflow:visible;visibility:visible;isolation:auto;mix-blend-mode:normal;color-interpolation:sRGB;color-interpolation-filters:linearRGB;solid-color:#000000;solid-opacity:1;vector-effect:none;fill:#000000;fill-opacity:1;fill-rule:nonzero;stroke:none;stroke-linecap:round;stroke-linejoin:round;stroke-miterlimit:4;stroke-dasharray:none;stroke-dashoffset:0;stroke-opacity:1;color-rendering:auto;image-rendering:auto;shape-rendering:auto;text-rendering:auto;enable-background:accumulate;stop-color:#000000;stop-opacity:1;opacity:1"
     d="M 10,1 C 8.3549904,1 7,2.3549904 7,4 V 6 H 6 C 4.3549904,6 3,7.3549904 3,9 v 11 c 0,1.645025 1.3550085,3 3,3 h 8 c 1.645007,0 3,-1.354993 3,-3 v -1 h 1 c 1.645007,0 3,-1.354993 3,-3 V 7.2421875 C 21,6.4353041 20.67474,5.6598626 20.097656,5.0957031 L 16.78125,1.8554688 C 16.221017,1.3076942 15.4692,1 14.685547,1 Z m 0,2 h 4.685547 c 0.261747,0 0.510099,0.1021508 0.697265,0.2851562 l 3.316407,3.2421876 C 18.891935,6.7157441 19,6.9726309 19,7.2421875 V 16 c 0,0.564193 -0.435807,1 -1,1 H 16 10 C 9.4358515,17 9,16.564175 9,16 V 7 4 C 9,3.4358696 9.4358696,3 10,3 Z M 6,8 h 1 v 8 c 0,1.645025 1.3550085,3 3,3 h 5 v 1 c 0,0.564193 -0.435807,1 -1,1 H 6 C 5.4358515,21 5,20.564175 5,20 V 9 C 5,8.4358696 5.4358696,8 6,8 Z" />
</svg>
