<?xml version="1.0" encoding="UTF-8" standalone="no"?>
<svg
   xmlns:dc="http://purl.org/dc/elements/1.1/"
   xmlns:cc="http://creativecommons.org/ns#"
   xmlns:rdf="http://www.w3.org/1999/02/22-rdf-syntax-ns#"
   xmlns:svg="http://www.w3.org/2000/svg"
   xmlns="http://www.w3.org/2000/svg"
   xmlns:sodipodi="http://sodipodi.sourceforge.net/DTD/sodipodi-0.dtd"
   xmlns:inkscape="http://www.inkscape.org/namespaces/inkscape"
   width="24"
   height="24"
   viewBox="0 0 24 24"
   fill="none"
   version="1.1"
   id="svg1120"
   sodipodi:docname="enlarge.svg"
   inkscape:version="1.0.2 (e86c8708, 2021-01-15)">
  <metadata
     id="metadata1126">
    <rdf:RDF>
      <cc:Work
         rdf:about="">
        <dc:format>image/svg+xml</dc:format>
        <dc:type
           rdf:resource="http://purl.org/dc/dcmitype/StillImage" />
      </cc:Work>
    </rdf:RDF>
  </metadata>
  <defs
     id="defs1124" />
  <sodipodi:namedview
     pagecolor="#ffffff"
     bordercolor="#666666"
     borderopacity="1"
     objecttolerance="10"
     gridtolerance="10"
     guidetolerance="10"
     inkscape:pageopacity="0"
     inkscape:pageshadow="2"
     inkscape:window-width="689"
     inkscape:window-height="480"
     id="namedview1122"
     showgrid="false"
     inkscape:zoom="24.625"
     inkscape:cx="12"
     inkscape:cy="12"
     inkscape:window-x="0"
     inkscape:window-y="25"
     inkscape:window-maximized="0"
     inkscape:current-layer="svg1120" />
  <path
     id="path1112"
     style="color:#000000;font-style:normal;font-variant:normal;font-weight:normal;font-stretch:normal;font-size:medium;line-height:normal;font-family:sans-serif;font-variant-ligatures:normal;font-variant-position:normal;font-variant-caps:normal;font-variant-numeric:normal;font-variant-alternates:normal;font-variant-east-asian:normal;font-feature-settings:normal;font-variation-settings:normal;text-indent:0;text-align:start;text-decoration:none;text-decoration-line:none;text-decoration-style:solid;text-decoration-color:#000000;letter-spacing:normal;word-spacing:normal;text-transform:none;writing-mode:lr-tb;direction:ltr;text-orientation:mixed;dominant-baseline:auto;baseline-shift:baseline;text-anchor:start;white-space:normal;shape-padding:0;shape-margin:0;inline-size:0;clip-rule:nonzero;display:inline;overflow:visible;visibility:visible;isolation:auto;mix-blend-mode:normal;color-interpolation:sRGB;color-interpolation-filters:linearRGB;solid-color:#000000;solid-opacity:1;vector-effect:none;fill:#000000;fill-opacity:1;fill-rule:nonzero;stroke:none;stroke-linecap:round;stroke-linejoin:round;stroke-miterlimit:4;stroke-dasharray:none;stroke-dashoffset:0;stroke-opacity:1;color-rendering:auto;image-rendering:auto;shape-rendering:auto;text-rendering:auto;enable-background:accumulate;stop-color:#000000;stop-opacity:1;opacity:1"
     d="m 15,2 a 1,1 0 0 0 -1,1 1,1 0 0 0 1,1 h 3.585938 l -4.792969,4.7929688 a 1,1 0 0 0 0,1.4140622 1,1 0 0 0 1.414062,0 L 20,5.4140625 V 9 a 1,1 0 0 0 1,1 1,1 0 0 0 1,-1 V 3.0292969 A 1,1 0 0 0 22,3 a 1.0001,1.0001 0 0 0 -0.002,-0.054687 1,1 0 0 0 -0.002,-0.029297 1.0001,1.0001 0 0 0 -0.0059,-0.054687 1,1 0 0 0 -0.002,-0.00781 1.0001,1.0001 0 0 0 -0.03516,-0.15625 1,1 0 0 0 -0.0098,-0.027344 1.0001,1.0001 0 0 0 -0.002,-0.00781 1,1 0 0 0 -0.0293,-0.070312 1.0001,1.0001 0 0 0 -0.02344,-0.050781 1,1 0 0 0 -0.01367,-0.025391 1.0001,1.0001 0 0 0 -0.02734,-0.046875 1,1 0 0 0 -0.01563,-0.023437 1.0001,1.0001 0 0 0 -0.0332,-0.044922 1,1 0 0 0 -0.01758,-0.023437 1.0001,1.0001 0 0 0 -0.03516,-0.042969 1,1 0 0 0 -0.01953,-0.021484 1.0001,1.0001 0 0 0 -0.08203,-0.076172 1,1 0 0 0 -0.04297,-0.035156 1.0001,1.0001 0 0 0 -0.02344,-0.017578 1,1 0 0 0 -0.04492,-0.029297 1.0001,1.0001 0 0 0 -0.02539,-0.015625 1,1 0 0 0 -0.01758,-0.00977 1.0001,1.0001 0 0 0 -0.05664,-0.029297 1,1 0 0 0 -0.07227,-0.03125 1.0001,1.0001 0 0 0 -0.0039,-0.00195 1,1 0 0 0 -0.0078,-0.00195 1.0001,1.0001 0 0 0 -0.07227,-0.025391 1,1 0 0 0 -0.06836,-0.015625 1.0001,1.0001 0 0 0 -0.01367,-0.00391 1,1 0 0 0 -0.05469,-0.00977 1.0001,1.0001 0 0 0 -0.0098,0 1,1 0 0 0 -0.07422,-0.00781 A 1.0001,1.0001 0 0 0 21,2 Z M 9.5292969,13.5 A 1,1 0 0 0 8.7929688,13.792969 L 4,18.585938 V 15 A 1,1 0 0 0 3,14 1,1 0 0 0 2,15 V 20.970703 21 a 1.0001,1.0001 0 0 0 0.00195,0.0293 1,1 0 0 0 0.00195,0.03711 1.0001,1.0001 0 0 0 0.00391,0.05078 1,1 0 0 0 0.00391,0.0293 1.0001,1.0001 0 0 0 0.013672,0.07617 1.0001,1.0001 0 0 0 0.015625,0.05859 1,1 0 0 0 0.013672,0.04297 1.0001,1.0001 0 0 0 0.00391,0.01367 1,1 0 0 0 0.029297,0.07031 1,1 0 0 0 0.033203,0.06641 1.0001,1.0001 0 0 0 0.013672,0.02734 1,1 0 0 0 0.027344,0.04102 1.0001,1.0001 0 0 0 0.035156,0.05078 1,1 0 0 0 0.00586,0.0098 1.0001,1.0001 0 0 0 0.03125,0.03906 1,1 0 0 0 0.03125,0.03516 1.0001,1.0001 0 0 0 0.019531,0.02148 1,1 0 0 0 0.00781,0.0078 1,1 0 0 0 0.00977,0.0098 1.0001,1.0001 0 0 0 0.052734,0.04687 1.0001,1.0001 0 0 0 0.066406,0.05078 1.0001,1.0001 0 0 0 0.060547,0.03906 1,1 0 0 0 0.027344,0.01758 1.0001,1.0001 0 0 0 0.056641,0.0293 1.0001,1.0001 0 0 0 0.072266,0.03125 1,1 0 0 0 0.011719,0.0039 1.0001,1.0001 0 0 0 0.064453,0.02344 1,1 0 0 0 0.035156,0.0078 1.0001,1.0001 0 0 0 0.041016,0.0098 1,1 0 0 0 0.041016,0.0078 1.0001,1.0001 0 0 0 0.027344,0.0059 1,1 0 0 0 0.00977,0 1,1 0 0 0 0.074219,0.0078 A 1.0001,1.0001 0 0 0 3,22 H 9 A 1,1 0 0 0 10,21 1,1 0 0 0 9,20 H 5.4140625 l 4.7929685,-4.792969 a 1,1 0 0 0 0,-1.414062 A 1,1 0 0 0 9.5292969,13.5 Z" />
</svg>
