<?xml version="1.0" encoding="UTF-8" standalone="no"?>
<svg
   xmlns:dc="http://purl.org/dc/elements/1.1/"
   xmlns:cc="http://creativecommons.org/ns#"
   xmlns:rdf="http://www.w3.org/1999/02/22-rdf-syntax-ns#"
   xmlns:svg="http://www.w3.org/2000/svg"
   xmlns="http://www.w3.org/2000/svg"
   xmlns:sodipodi="http://sodipodi.sourceforge.net/DTD/sodipodi-0.dtd"
   xmlns:inkscape="http://www.inkscape.org/namespaces/inkscape"
   width="24"
   height="24"
   viewBox="0 0 24 24"
   fill="none"
   version="1.1"
   id="svg56"
   sodipodi:docname="gear.svg"
   inkscape:version="1.0.2 (e86c8708, 2021-01-15)">
  <metadata
     id="metadata62">
    <rdf:RDF>
      <cc:Work
         rdf:about="">
        <dc:format>image/svg+xml</dc:format>
        <dc:type
           rdf:resource="http://purl.org/dc/dcmitype/StillImage" />
      </cc:Work>
    </rdf:RDF>
  </metadata>
  <defs
     id="defs60" />
  <sodipodi:namedview
     pagecolor="#ffffff"
     bordercolor="#666666"
     borderopacity="1"
     objecttolerance="10"
     gridtolerance="10"
     guidetolerance="10"
     inkscape:pageopacity="0"
     inkscape:pageshadow="2"
     inkscape:window-width="689"
     inkscape:window-height="480"
     id="namedview58"
     showgrid="false"
     inkscape:zoom="24.625"
     inkscape:cx="12"
     inkscape:cy="12"
     inkscape:window-x="0"
     inkscape:window-y="25"
     inkscape:window-maximized="0"
     inkscape:current-layer="svg56" />
  <path
     id="path52"
     style="color:#000000;font-style:normal;font-variant:normal;font-weight:normal;font-stretch:normal;font-size:medium;line-height:normal;font-family:sans-serif;font-variant-ligatures:normal;font-variant-position:normal;font-variant-caps:normal;font-variant-numeric:normal;font-variant-alternates:normal;font-variant-east-asian:normal;font-feature-settings:normal;font-variation-settings:normal;text-indent:0;text-align:start;text-decoration:none;text-decoration-line:none;text-decoration-style:solid;text-decoration-color:#000000;letter-spacing:normal;word-spacing:normal;text-transform:none;writing-mode:lr-tb;direction:ltr;text-orientation:mixed;dominant-baseline:auto;baseline-shift:baseline;text-anchor:start;white-space:normal;shape-padding:0;shape-margin:0;inline-size:0;clip-rule:nonzero;display:inline;overflow:visible;visibility:visible;isolation:auto;mix-blend-mode:normal;color-interpolation:sRGB;color-interpolation-filters:linearRGB;solid-color:#000000;solid-opacity:1;vector-effect:none;fill:#000000;fill-opacity:1;fill-rule:nonzero;stroke:none;stroke-linecap:butt;stroke-linejoin:miter;stroke-miterlimit:4;stroke-dasharray:none;stroke-dashoffset:0;stroke-opacity:1;color-rendering:auto;image-rendering:auto;shape-rendering:auto;text-rendering:auto;enable-background:accumulate;stop-color:#000000;stop-opacity:1;opacity:1"
     d="M 11.269531,1 C 10.028471,1 9,2.0284354 9,3.2695312 9,3.3919015 8.8976776,3.5459295 8.6972656,3.625 8.6012771,3.6628683 8.5063592,3.7031434 8.4121094,3.7441406 8.2146692,3.8300294 8.0339213,3.7917317 7.9472656,3.7050781 7.0695872,2.827382 5.6159598,2.827382 4.7382812,3.7050781 L 3.7050781,4.7382812 c -0.8776963,0.8776964 -0.8776963,2.3312881 0,3.2089844 0.086653,0.086653 0.1249524,0.2673803 0.039063,0.4648438 C 3.7031454,8.50635 3.6628268,8.6013928 3.625,8.6972656 3.5459334,8.8976676 3.3918837,9 3.2695312,9 2.0284354,9 1,10.028471 1,11.269531 v 1.460938 C 1,13.971529 2.0284354,15 3.2695312,15 c 0.12241,0 0.2763959,0.102298 0.3554688,0.302734 0.037709,0.09556 0.078441,0.191596 0.1191406,0.285157 0.085861,0.197377 0.047599,0.378178 -0.039063,0.464843 -0.8777827,0.877695 -0.8777827,2.331291 0,3.208985 l 1.0332031,1.033203 c 0.8776615,0.877768 2.331323,0.877768 3.2089844,0 0.08666,-0.08665 0.2674852,-0.124916 0.4648438,-0.03906 0.094402,0.04114 0.189891,0.08156 0.2851562,0.119141 C 8.8977303,20.454114 9,20.608188 9,20.730469 9,21.971558 10.028442,23 11.269531,23 h 1.460938 C 13.971558,23 15,21.971558 15,20.730469 15,20.60813 15.102235,20.45412 15.302734,20.375 c 0.0952,-0.03756 0.191268,-0.07831 0.285157,-0.119141 0.197444,-0.08589 0.378281,-0.04752 0.464843,0.03906 0.877666,0.877666 2.331319,0.877666 3.208985,0 l 1.033203,-1.033203 c 0.877618,-0.877619 0.877618,-2.331366 0,-3.208985 -0.08671,-0.08671 -0.124956,-0.267399 -0.03906,-0.464843 0.04132,-0.09476 0.08167,-0.190201 0.119141,-0.285157 C 20.454107,15.102304 20.608246,15 20.730469,15 21.971558,15 23,13.971558 23,12.730469 V 11.269531 C 23,10.028442 21.971558,9 20.730469,9 20.608188,9 20.454114,8.8977303 20.375,8.6972656 20.337419,8.6019826 20.296987,8.506512 20.255859,8.4121094 20.16998,8.2147061 20.208293,8.033882 20.294922,7.9472656 c 0.877647,-0.8776468 0.877647,-2.3313375 0,-3.2089844 L 19.261719,3.7050781 c -0.877662,-0.8776797 -2.331323,-0.8776797 -3.208985,0 -0.08656,0.08657 -0.267409,0.1249444 -0.464843,0.039063 C 15.493517,3.7030764 15.398618,3.6628244 15.302734,3.625 15.102298,3.5459271 15,3.3919411 15,3.2695312 15,2.0284354 13.971529,1 12.730469,1 Z m 0,2 h 1.460938 C 12.890608,3 13,3.1093672 13,3.2695312 c 0,1.0352702 0.691796,1.8709898 1.568359,2.2167969 0.07452,0.029396 0.147678,0.060021 0.220703,0.091797 0.864568,0.3760781 1.945494,0.2733459 2.677735,-0.4589844 0.113338,-0.1133402 0.267521,-0.1133402 0.380859,0 l 1.033203,1.0332032 c 0.113354,0.1133531 0.113354,0.2675062 0,0.3808593 -0.732371,0.7322637 -0.835105,1.8131776 -0.458984,2.6777344 0.03163,0.072606 0.06238,0.1460672 0.0918,0.2207031 C 18.859558,10.308076 19.69515,11 20.730469,11 20.89058,11 21,11.10942 21,11.269531 v 1.460938 C 21,12.89058 20.89058,13 20.730469,13 c -1.035377,0 -1.870904,0.691989 -2.216797,1.568359 -0.02953,0.07489 -0.06036,0.148614 -0.0918,0.220703 -0.376106,0.864557 -0.273304,1.945447 0.458984,2.677735 0.113382,0.113382 0.113382,0.267478 0,0.380859 l -1.033203,1.033203 c -0.113334,0.113334 -0.267525,0.113334 -0.380859,0 -0.732238,-0.732416 -1.813179,-0.83509 -2.677735,-0.458984 -0.07296,0.03173 -0.146061,0.06236 -0.220703,0.0918 C 13.691859,18.859552 13,19.695207 13,20.730469 13,20.89058 12.89058,21 12.730469,21 H 11.269531 C 11.10942,21 11,20.89058 11,20.730469 11,19.69515 10.308076,18.859558 9.4316406,18.513672 c -0.074614,-0.02942 -0.1481563,-0.06018 -0.2207031,-0.0918 -0.8646815,-0.376147 -1.9454547,-0.27317 -2.6777344,0.458984 -0.1134186,0.113433 -0.2674409,0.113433 -0.3808593,0 L 5.1191406,17.847656 c -0.1133172,-0.113306 -0.1133172,-0.267553 0,-0.380859 C 5.8514394,16.734462 5.9542439,15.653686 5.578125,14.789062 5.5462421,14.71577 5.5156167,14.642627 5.4863281,14.568359 5.140521,13.691796 4.3048014,13 3.2695312,13 3.1093673,13 3,12.890608 3,12.730469 V 11.269531 C 3,11.109392 3.1093672,11 3.2695312,11 4.3048589,11 5.1405147,10.308139 5.4863281,9.4316406 5.5157014,9.3571935 5.5463002,9.2840969 5.578125,9.2109375 5.9541951,8.346341 5.8514478,7.2655103 5.1191406,6.5332031 5.005737,6.4197995 5.005737,6.2657474 5.1191406,6.1523438 L 6.1523438,5.1191406 c 0.1133815,-0.1133839 0.2674777,-0.1133839 0.3808593,0 0.7323044,0.7322865 1.8131346,0.8350956 2.6777344,0.4589844 0.07325,-0.031863 0.1462517,-0.062425 0.2207031,-0.091797 C 10.308129,5.1405186 11,4.3048611 11,3.2695312 11,3.1093673 11.109392,3 11.269531,3 Z M 12,7 c -2.7495796,0 -5,2.2504204 -5,5 0,2.749549 2.2504084,5 5,5 2.749561,0 5,-2.250439 5,-5 0,-2.7495916 -2.250451,-5 -5,-5 z m 0,2 c 1.668651,0 3,1.331312 3,3 0,1.668639 -1.331361,3 -3,3 -1.668688,0 -3,-1.331349 -3,-3 0,-1.6687 1.3313,-3 3,-3 z" />
</svg>
