<?xml version="1.0" encoding="UTF-8" standalone="no"?>
<svg
   xmlns:dc="http://purl.org/dc/elements/1.1/"
   xmlns:cc="http://creativecommons.org/ns#"
   xmlns:rdf="http://www.w3.org/1999/02/22-rdf-syntax-ns#"
   xmlns:svg="http://www.w3.org/2000/svg"
   xmlns="http://www.w3.org/2000/svg"
   xmlns:sodipodi="http://sodipodi.sourceforge.net/DTD/sodipodi-0.dtd"
   xmlns:inkscape="http://www.inkscape.org/namespaces/inkscape"
   width="24"
   height="24"
   viewBox="0 0 24 24"
   fill="none"
   version="1.1"
   id="svg36"
   sodipodi:docname="person.svg"
   inkscape:version="1.0.2 (e86c8708, 2021-01-15)">
  <metadata
     id="metadata42">
    <rdf:RDF>
      <cc:Work
         rdf:about="">
        <dc:format>image/svg+xml</dc:format>
        <dc:type
           rdf:resource="http://purl.org/dc/dcmitype/StillImage" />
      </cc:Work>
    </rdf:RDF>
  </metadata>
  <defs
     id="defs40" />
  <sodipodi:namedview
     pagecolor="#ffffff"
     bordercolor="#666666"
     borderopacity="1"
     objecttolerance="10"
     gridtolerance="10"
     guidetolerance="10"
     inkscape:pageopacity="0"
     inkscape:pageshadow="2"
     inkscape:window-width="689"
     inkscape:window-height="480"
     id="namedview38"
     showgrid="false"
     inkscape:zoom="30.625"
     inkscape:cx="12"
     inkscape:cy="12"
     inkscape:window-x="0"
     inkscape:window-y="25"
     inkscape:window-maximized="0"
     inkscape:current-layer="svg36" />
  <path
     id="circle32"
     style="color:#000000;font-style:normal;font-variant:normal;font-weight:normal;font-stretch:normal;font-size:medium;line-height:normal;font-family:sans-serif;font-variant-ligatures:normal;font-variant-position:normal;font-variant-caps:normal;font-variant-numeric:normal;font-variant-alternates:normal;font-variant-east-asian:normal;font-feature-settings:normal;font-variation-settings:normal;text-indent:0;text-align:start;text-decoration:none;text-decoration-line:none;text-decoration-style:solid;text-decoration-color:#000000;letter-spacing:normal;word-spacing:normal;text-transform:none;writing-mode:lr-tb;direction:ltr;text-orientation:mixed;dominant-baseline:auto;baseline-shift:baseline;text-anchor:start;white-space:normal;shape-padding:0;shape-margin:0;inline-size:0;clip-rule:nonzero;display:inline;overflow:visible;visibility:visible;isolation:auto;mix-blend-mode:normal;color-interpolation:sRGB;color-interpolation-filters:linearRGB;solid-color:#000000;solid-opacity:1;vector-effect:none;fill:#000000;fill-opacity:1;fill-rule:nonzero;stroke:none;stroke-linecap:butt;stroke-linejoin:miter;stroke-miterlimit:4;stroke-dasharray:none;stroke-dashoffset:0;stroke-opacity:1;color-rendering:auto;image-rendering:auto;shape-rendering:auto;text-rendering:auto;enable-background:accumulate;stop-color:#000000;stop-opacity:1;opacity:1"
     d="M 12,1 C 8.6981361,1 6,3.6981361 6,7 c 0,3.301864 2.6981361,6 6,6 3.301864,0 6,-2.698136 6,-6 0,-3.3018639 -2.698136,-6 -6,-6 z m 0,2 c 2.220984,0 4,1.7790164 4,4 0,2.2209836 -1.779016,4 -4,4 C 9.7790164,11 8,9.2209836 8,7 8,4.7790164 9.7790164,3 12,3 Z M 6.6484375,13 c -2.0093887,0 -3.7195171,1.510017 -3.96875,3.503906 l -0.390625,3.123047 C 2.06738,21.400443 3.4783132,23 5.265625,23 h 13.46875 c 1.787317,0 3.198232,-1.599544 2.976563,-3.373047 L 21.320312,16.503906 C 21.071029,14.510039 19.360905,13 17.351562,13 H 17 a 1,1 0 0 0 -1,1 1,1 0 0 0 1,1 h 0.351562 c 1.016459,0 1.858259,0.743221 1.984376,1.751953 L 19.726562,19.875 C 19.803293,20.488897 19.353058,21 18.734375,21 H 5.265625 C 4.6469568,21 4.1967,20.48891 4.2734375,19.875 l 0.390625,-3.123047 C 4.7901496,15.743243 5.6318862,15 6.6484375,15 H 7 A 1,1 0 0 0 8,14 1,1 0 0 0 7,13 Z" />
</svg>
