<?xml version="1.0" encoding="UTF-8" standalone="no"?>
<svg
   xmlns:dc="http://purl.org/dc/elements/1.1/"
   xmlns:cc="http://creativecommons.org/ns#"
   xmlns:rdf="http://www.w3.org/1999/02/22-rdf-syntax-ns#"
   xmlns:svg="http://www.w3.org/2000/svg"
   xmlns="http://www.w3.org/2000/svg"
   xmlns:sodipodi="http://sodipodi.sourceforge.net/DTD/sodipodi-0.dtd"
   xmlns:inkscape="http://www.inkscape.org/namespaces/inkscape"
   width="24"
   height="24"
   viewBox="0 0 24 24"
   fill="none"
   version="1.1"
   id="svg30"
   sodipodi:docname="question.svg"
   inkscape:version="1.0.2 (e86c8708, 2021-01-15)">
  <metadata
     id="metadata36">
    <rdf:RDF>
      <cc:Work
         rdf:about="">
        <dc:format>image/svg+xml</dc:format>
        <dc:type
           rdf:resource="http://purl.org/dc/dcmitype/StillImage" />
      </cc:Work>
    </rdf:RDF>
  </metadata>
  <defs
     id="defs34" />
  <sodipodi:namedview
     pagecolor="#ffffff"
     bordercolor="#666666"
     borderopacity="1"
     objecttolerance="10"
     gridtolerance="10"
     guidetolerance="10"
     inkscape:pageopacity="0"
     inkscape:pageshadow="2"
     inkscape:window-width="689"
     inkscape:window-height="480"
     id="namedview32"
     showgrid="false"
     inkscape:zoom="30.625"
     inkscape:cx="12"
     inkscape:cy="12"
     inkscape:window-x="0"
     inkscape:window-y="25"
     inkscape:window-maximized="0"
     inkscape:current-layer="svg30" />
  <path
     id="circle26"
     style="color:#000000;font-style:normal;font-variant:normal;font-weight:normal;font-stretch:normal;font-size:medium;line-height:normal;font-family:sans-serif;font-variant-ligatures:normal;font-variant-position:normal;font-variant-caps:normal;font-variant-numeric:normal;font-variant-alternates:normal;font-variant-east-asian:normal;font-feature-settings:normal;font-variation-settings:normal;text-indent:0;text-align:start;text-decoration:none;text-decoration-line:none;text-decoration-style:solid;text-decoration-color:#000000;letter-spacing:normal;word-spacing:normal;text-transform:none;writing-mode:lr-tb;direction:ltr;text-orientation:mixed;dominant-baseline:auto;baseline-shift:baseline;text-anchor:start;white-space:normal;shape-padding:0;shape-margin:0;inline-size:0;clip-rule:nonzero;display:inline;overflow:visible;visibility:visible;isolation:auto;mix-blend-mode:normal;color-interpolation:sRGB;color-interpolation-filters:linearRGB;solid-color:#000000;solid-opacity:1;vector-effect:none;fill:#000000;fill-opacity:1;fill-rule:nonzero;stroke:none;stroke-linecap:butt;stroke-linejoin:miter;stroke-miterlimit:4;stroke-dasharray:none;stroke-dashoffset:0;stroke-opacity:1;color-rendering:auto;image-rendering:auto;shape-rendering:auto;text-rendering:auto;enable-background:accumulate;stop-color:#000000;stop-opacity:1;opacity:1"
     d="M 12,1 C 5.9367124,1 1,5.9367124 1,12 1,18.063288 5.9367124,23 12,23 18.063288,23 23,18.063288 23,12 23,5.9367124 18.063288,1 12,1 Z m 0,2 c 4.982407,0 9,4.0175926 9,9 0,4.982407 -4.017593,9 -9,9 C 7.0175926,21 3,16.982407 3,12 3,7.0175926 7.0175926,3 12,3 Z m 0,3 C 11.335163,6 10.681984,6.1977862 10.191406,6.5859375 9.7008284,6.9740888 9.3876989,7.4788096 9.1074219,8.0332031 A 1,1 0 0 0 9.5488281,9.375 1,1 0 0 0 10.892578,8.9355469 C 11.112301,8.5009304 11.299172,8.260653 11.433594,8.1542969 11.568016,8.0479407 11.664837,8 12,8 c 0.716977,0 1,0.4976906 1,0.9785156 0,0.3259863 -0.01763,0.3716573 -0.203125,0.5917969 -0.185493,0.2201396 -0.618967,0.5644725 -1.347656,1.0449215 L 11,10.912109 V 13 a 1,1 0 0 0 1,1 1,1 0 0 0 1,-1 v -1.076172 c 0.502307,-0.348892 0.999819,-0.674826 1.328125,-1.064453 C 14.767632,10.337777 15,9.6415393 15,8.9785156 15,7.4813207 13.775223,6 12,6 Z m 0,9.5 a 1,1 0 0 0 -1,1 V 17 a 1,1 0 0 0 1,1 1,1 0 0 0 1,-1 v -0.5 a 1,1 0 0 0 -1,-1 z" />
</svg>
