<?xml version="1.0" encoding="UTF-8" standalone="no"?>
<svg
   xmlns:dc="http://purl.org/dc/elements/1.1/"
   xmlns:cc="http://creativecommons.org/ns#"
   xmlns:rdf="http://www.w3.org/1999/02/22-rdf-syntax-ns#"
   xmlns:svg="http://www.w3.org/2000/svg"
   xmlns="http://www.w3.org/2000/svg"
   xmlns:sodipodi="http://sodipodi.sourceforge.net/DTD/sodipodi-0.dtd"
   xmlns:inkscape="http://www.inkscape.org/namespaces/inkscape"
   width="24"
   height="24"
   viewBox="0 0 24 24"
   fill="none"
   version="1.1"
   id="svg1210"
   sodipodi:docname="reduce.svg"
   inkscape:version="1.0.2 (e86c8708, 2021-01-15)">
  <metadata
     id="metadata1216">
    <rdf:RDF>
      <cc:Work
         rdf:about="">
        <dc:format>image/svg+xml</dc:format>
        <dc:type
           rdf:resource="http://purl.org/dc/dcmitype/StillImage" />
      </cc:Work>
    </rdf:RDF>
  </metadata>
  <defs
     id="defs1214" />
  <sodipodi:namedview
     pagecolor="#ffffff"
     bordercolor="#666666"
     borderopacity="1"
     objecttolerance="10"
     gridtolerance="10"
     guidetolerance="10"
     inkscape:pageopacity="0"
     inkscape:pageshadow="2"
     inkscape:window-width="689"
     inkscape:window-height="480"
     id="namedview1212"
     showgrid="false"
     inkscape:zoom="24.625"
     inkscape:cx="12"
     inkscape:cy="12"
     inkscape:window-x="0"
     inkscape:window-y="25"
     inkscape:window-maximized="0"
     inkscape:current-layer="svg1210" />
  <path
     id="path1202"
     style="color:#000000;font-style:normal;font-variant:normal;font-weight:normal;font-stretch:normal;font-size:medium;line-height:normal;font-family:sans-serif;font-variant-ligatures:normal;font-variant-position:normal;font-variant-caps:normal;font-variant-numeric:normal;font-variant-alternates:normal;font-variant-east-asian:normal;font-feature-settings:normal;font-variation-settings:normal;text-indent:0;text-align:start;text-decoration:none;text-decoration-line:none;text-decoration-style:solid;text-decoration-color:#000000;letter-spacing:normal;word-spacing:normal;text-transform:none;writing-mode:lr-tb;direction:ltr;text-orientation:mixed;dominant-baseline:auto;baseline-shift:baseline;text-anchor:start;white-space:normal;shape-padding:0;shape-margin:0;inline-size:0;clip-rule:nonzero;display:inline;overflow:visible;visibility:visible;isolation:auto;mix-blend-mode:normal;color-interpolation:sRGB;color-interpolation-filters:linearRGB;solid-color:#000000;solid-opacity:1;vector-effect:none;fill:#000000;fill-opacity:1;fill-rule:nonzero;stroke:none;stroke-linecap:round;stroke-linejoin:round;stroke-miterlimit:4;stroke-dasharray:none;stroke-dashoffset:0;stroke-opacity:1;color-rendering:auto;image-rendering:auto;shape-rendering:auto;text-rendering:auto;enable-background:accumulate;stop-color:#000000;stop-opacity:1;opacity:1"
     d="M 21.029297,2 A 1,1 0 0 0 20.292969,2.2929688 L 15,7.5859375 V 4 A 1,1 0 0 0 14,3 1,1 0 0 0 13,4 v 6 a 1.0001,1.0001 0 0 0 0.002,0.0293 1,1 0 0 0 0.002,0.03711 1.0001,1.0001 0 0 0 0.0039,0.05078 1,1 0 0 0 0.0039,0.0293 1.0001,1.0001 0 0 0 0.0293,0.134766 1,1 0 0 0 0.01367,0.04297 1.0001,1.0001 0 0 0 0.0039,0.01367 1,1 0 0 0 0.0625,0.136718 1.0001,1.0001 0 0 0 0.01367,0.02734 1,1 0 0 0 0.02734,0.04102 1.0001,1.0001 0 0 0 0.03516,0.05078 1,1 0 0 0 0.0059,0.0098 1.0001,1.0001 0 0 0 0.03125,0.03906 1,1 0 0 0 0.03125,0.03516 1.0001,1.0001 0 0 0 0.01953,0.02149 1,1 0 0 0 0.0078,0.0078 1,1 0 0 0 0.0098,0.0098 1.0001,1.0001 0 0 0 0.179688,0.136719 1,1 0 0 0 0.02734,0.01758 1.0001,1.0001 0 0 0 0.128906,0.06055 1,1 0 0 0 0.01172,0.0039 1.0001,1.0001 0 0 0 0.06445,0.02344 1,1 0 0 0 0.03516,0.0078 1.0001,1.0001 0 0 0 0.04102,0.0098 1,1 0 0 0 0.04101,0.0078 1.0001,1.0001 0 0 0 0.02734,0.0059 1,1 0 0 0 0.08398,0.0078 A 1.0001,1.0001 0 0 0 14,11 h 6 a 1,1 0 0 0 1,-1 1,1 0 0 0 -1,-1 h -3.585938 l 5.292969,-5.2929688 a 1,1 0 0 0 0,-1.4140624 A 1,1 0 0 0 21.029297,2 Z M 4,13 a 1,1 0 0 0 -1,1 1,1 0 0 0 1,1 h 3.5859375 l -5.2929687,5.292969 a 1,1 0 0 0 0,1.414062 1,1 0 0 0 1.4140624,0 L 9,16.414062 V 20 a 1,1 0 0 0 1,1 1,1 0 0 0 1,-1 V 14.029297 A 1,1 0 0 0 11,14 a 1.0001,1.0001 0 0 0 -0.002,-0.05469 1,1 0 0 0 -0.002,-0.0293 1.0001,1.0001 0 0 0 -0.0059,-0.05469 1,1 0 0 0 -0.002,-0.0078 1.0001,1.0001 0 0 0 -0.01367,-0.07617 1.0001,1.0001 0 0 0 -0.01563,-0.05859 1.0001,1.0001 0 0 0 -0.0059,-0.02148 1,1 0 0 0 -0.0098,-0.02734 1.0001,1.0001 0 0 0 -0.002,-0.0078 1,1 0 0 0 -0.0293,-0.07031 1.0001,1.0001 0 0 0 -0.02344,-0.05078 1,1 0 0 0 -0.01367,-0.02539 1.0001,1.0001 0 0 0 -0.02734,-0.04687 1,1 0 0 0 -0.01563,-0.02344 1.0001,1.0001 0 0 0 -0.0332,-0.04492 1,1 0 0 0 -0.01758,-0.02344 1.0001,1.0001 0 0 0 -0.03516,-0.04297 1,1 0 0 0 -0.01953,-0.02148 1.0001,1.0001 0 0 0 -0.0293,-0.0293 1.0001,1.0001 0 0 0 -0.05274,-0.04687 1,1 0 0 0 -0.04297,-0.03516 1.0001,1.0001 0 0 0 -0.02344,-0.01758 1,1 0 0 0 -0.04492,-0.0293 1.0001,1.0001 0 0 0 -0.02539,-0.01563 1,1 0 0 0 -0.01758,-0.0098 1.0001,1.0001 0 0 0 -0.05664,-0.0293 1,1 0 0 0 -0.07227,-0.03125 1.0001,1.0001 0 0 0 -0.0039,-0.002 1,1 0 0 0 -0.0078,-0.002 1.0001,1.0001 0 0 0 -0.06445,-0.02344 1.0001,1.0001 0 0 0 -0.0078,-0.002 1,1 0 0 0 -0.06836,-0.01562 1.0001,1.0001 0 0 0 -0.01367,-0.0039 1,1 0 0 0 -0.05469,-0.0098 1.0001,1.0001 0 0 0 -0.0098,0 1,1 0 0 0 -0.07422,-0.0078 A 1.0001,1.0001 0 0 0 10,13 Z" />
</svg>
