<?xml version="1.0" encoding="UTF-8" standalone="no"?>
<svg
   xmlns:dc="http://purl.org/dc/elements/1.1/"
   xmlns:cc="http://creativecommons.org/ns#"
   xmlns:rdf="http://www.w3.org/1999/02/22-rdf-syntax-ns#"
   xmlns:svg="http://www.w3.org/2000/svg"
   xmlns="http://www.w3.org/2000/svg"
   xmlns:sodipodi="http://sodipodi.sourceforge.net/DTD/sodipodi-0.dtd"
   xmlns:inkscape="http://www.inkscape.org/namespaces/inkscape"
   width="24"
   height="24"
   viewBox="0 0 24 24"
   fill="none"
   version="1.1"
   id="svg56"
   sodipodi:docname="sign-out.svg"
   inkscape:version="1.0.2 (e86c8708, 2021-01-15)">
  <metadata
     id="metadata62">
    <rdf:RDF>
      <cc:Work
         rdf:about="">
        <dc:format>image/svg+xml</dc:format>
        <dc:type
           rdf:resource="http://purl.org/dc/dcmitype/StillImage" />
      </cc:Work>
    </rdf:RDF>
  </metadata>
  <defs
     id="defs60" />
  <sodipodi:namedview
     pagecolor="#ffffff"
     bordercolor="#666666"
     borderopacity="1"
     objecttolerance="10"
     gridtolerance="10"
     guidetolerance="10"
     inkscape:pageopacity="0"
     inkscape:pageshadow="2"
     inkscape:window-width="689"
     inkscape:window-height="480"
     id="namedview58"
     showgrid="false"
     inkscape:zoom="30.625"
     inkscape:cx="12"
     inkscape:cy="12"
     inkscape:window-x="0"
     inkscape:window-y="25"
     inkscape:window-maximized="0"
     inkscape:current-layer="svg56" />
  <path
     id="path52"
     style="color:#000000;font-style:normal;font-variant:normal;font-weight:normal;font-stretch:normal;font-size:medium;line-height:normal;font-family:sans-serif;font-variant-ligatures:normal;font-variant-position:normal;font-variant-caps:normal;font-variant-numeric:normal;font-variant-alternates:normal;font-variant-east-asian:normal;font-feature-settings:normal;font-variation-settings:normal;text-indent:0;text-align:start;text-decoration:none;text-decoration-line:none;text-decoration-style:solid;text-decoration-color:#000000;letter-spacing:normal;word-spacing:normal;text-transform:none;writing-mode:lr-tb;direction:ltr;text-orientation:mixed;dominant-baseline:auto;baseline-shift:baseline;text-anchor:start;white-space:normal;shape-padding:0;shape-margin:0;inline-size:0;clip-rule:nonzero;display:inline;overflow:visible;visibility:visible;isolation:auto;mix-blend-mode:normal;color-interpolation:sRGB;color-interpolation-filters:linearRGB;solid-color:#000000;solid-opacity:1;vector-effect:none;fill:#000000;fill-opacity:1;fill-rule:nonzero;stroke:none;stroke-linecap:round;stroke-linejoin:round;stroke-miterlimit:4;stroke-dasharray:none;stroke-dashoffset:0;stroke-opacity:1;color-rendering:auto;image-rendering:auto;shape-rendering:auto;text-rendering:auto;enable-background:accumulate;stop-color:#000000;stop-opacity:1;opacity:1"
     d="m 11.75,2.1835938 -8,0.6679687 C 2.2041652,2.9803932 1,4.2886496 1,5.8398438 V 18.160156 c 0,1.551211 1.2041966,2.859437 2.75,2.988282 l 8,0.667968 C 13.483867,21.960945 15,20.566081 15,18.826172 V 17 a 1,1 0 0 0 -1,-1 1,1 0 0 0 -1,1 v 1.826172 c 0,0.600291 -0.485851,1.045955 -1.083984,0.996094 L 3.9160156,19.15625 C 3.3886591,19.112294 3,18.689346 3,18.160156 V 5.8398438 C 3,5.3106779 3.3886704,4.8876993 3.9160156,4.84375 L 11.916016,4.1777344 C 12.514171,4.1278864 13,4.5735667 13,5.1738281 V 7 a 1,1 0 0 0 1,1 1,1 0 0 0 1,-1 V 5.1738281 C 15,3.4339295 13.483845,2.0391016 11.75,2.1835938 Z M 18.617188,7 A 1,1 0 0 0 18.027344,7.2324219 1,1 0 0 0 17.898438,8.640625 L 19.865234,11 H 13 a 1,1 0 0 0 -1,1 1,1 0 0 0 1,1 h 6.865234 l -1.966796,2.359375 a 1,1 0 0 0 0.128906,1.408203 1,1 0 0 0 1.408203,-0.126953 l 3.310547,-3.974609 a 1,1 0 0 0 0.0098,-0.01172 l 0.0039,-0.0039 a 1,1 0 0 0 0.0078,-0.0098 1,1 0 0 0 0.002,-0.002 1,1 0 0 0 0.01953,-0.02539 1,1 0 0 0 0.0098,-0.01172 1,1 0 0 0 0.002,-0.002 1,1 0 0 0 0.01172,-0.01563 1,1 0 0 0 0.0059,-0.0098 1,1 0 0 0 0.01563,-0.02539 1,1 0 0 0 0.01172,-0.01563 1,1 0 0 0 0.01172,-0.01953 1,1 0 0 0 0.0078,-0.01172 1,1 0 0 0 0.01367,-0.02734 1,1 0 0 0 0.0098,-0.01563 1,1 0 0 0 0.0039,-0.0078 1,1 0 0 0 0.002,-0.0039 1,1 0 0 0 0.0039,-0.0078 1,1 0 0 0 0.0059,-0.01172 1,1 0 0 0 0.0078,-0.01758 1,1 0 0 0 0.002,-0.0059 1,1 0 0 0 0.0098,-0.02149 1,1 0 0 0 0.0078,-0.01953 1,1 0 0 0 0.0039,-0.01172 1,1 0 0 0 0.002,-0.002 1,1 0 0 0 0.01953,-0.06445 1,1 0 0 0 0.002,-0.002 1,1 0 0 0 0.0039,-0.01172 1,1 0 0 0 0.01172,-0.04883 1,1 0 0 0 0.0039,-0.02148 1,1 0 0 0 0.0078,-0.04102 1,1 0 0 0 0.0039,-0.01953 1,1 0 0 0 0.002,-0.02148 1,1 0 0 0 0.002,-0.01367 1,1 0 0 0 0.0039,-0.04883 1,1 0 0 0 0.002,-0.02149 1,1 0 0 0 0,-0.0098 1,1 0 0 0 0,-0.0039 1,1 0 0 0 0,-0.0078 1,1 0 0 0 0,-0.0059 1,1 0 0 0 0,-0.0078 1,1 0 0 0 -0.002,-0.02148 1,1 0 0 0 0,-0.02734 1,1 0 0 0 0,-0.0059 1,1 0 0 0 0,-0.0078 1,1 0 0 0 -0.002,-0.02148 1,1 0 0 0 0,-0.002 1,1 0 0 0 -0.0098,-0.07422 1,1 0 0 0 0,-0.0078 1,1 0 0 0 -0.0059,-0.02734 1,1 0 0 0 -0.0039,-0.01367 1,1 0 0 0 0,-0.0059 1,1 0 0 0 -0.0039,-0.01367 1,1 0 0 0 -0.01172,-0.04687 1,1 0 0 0 -0.0059,-0.02148 1,1 0 0 0 -0.0039,-0.01172 1,1 0 0 0 -0.0039,-0.0098 1,1 0 0 0 -0.0039,-0.0098 1,1 0 0 0 0,-0.002 1,1 0 0 0 -0.01172,-0.0293 1,1 0 0 0 -0.0059,-0.01563 1,1 0 0 0 -0.0059,-0.01563 1,1 0 0 0 -0.0078,-0.01758 1,1 0 0 0 -0.0039,-0.0078 1,1 0 0 0 -0.0098,-0.02539 1,1 0 0 0 -0.0059,-0.01172 1,1 0 0 0 -0.0059,-0.01172 1,1 0 0 0 -0.01172,-0.01758 1,1 0 0 0 0,-0.002 1,1 0 0 0 -0.0059,-0.0098 1,1 0 0 0 -0.01758,-0.03125 1,1 0 0 0 -0.0059,-0.0078 1,1 0 0 0 -0.002,-0.0039 1,1 0 0 0 -0.0059,-0.0078 1,1 0 0 0 0,-0.002 1,1 0 0 0 -0.0059,-0.0078 1,1 0 0 0 -0.0293,-0.04101 1,1 0 0 0 -0.0078,-0.0098 1,1 0 0 0 -0.01367,-0.01758 1,1 0 0 0 -0.01367,-0.01758 1,1 0 0 0 -0.0059,-0.0059 1,1 0 0 0 -0.01953,-0.02344 L 19.435547,7.359375 A 1,1 0 0 0 18.701172,7 1,1 0 0 0 18.617188,7 Z" />
</svg>
