<?xml version="1.0" standalone="no"?>
<!DOCTYPE svg PUBLIC "-//W3C//DTD SVG 20010904//EN"
 "http://www.w3.org/TR/2001/REC-SVG-20010904/DTD/svg10.dtd">
<svg version="1.0" xmlns="http://www.w3.org/2000/svg"
 width="16.000000pt" height="16.000000pt" viewBox="0 0 16.000000 16.000000"
 preserveAspectRatio="xMidYMid meet">
<metadata>
Created by potrace 1.11, written by Peter Selinger 2001-2013
</metadata>
<g transform="translate(0.000000,16.000000) scale(0.003125,-0.003125)"
fill="#000000" stroke="none">
<path d="M2443 5106 c-224 -57 -385 -255 -395 -488 l-3 -58 -82 -30 c-225 -81
-443 -221 -622 -398 -272 -271 -436 -595 -496 -982 -15 -97 -18 -248 -19 -846
l-1 -650 -87 -28 c-131 -42 -246 -114 -358 -226 -113 -113 -178 -216 -226
-357 -37 -112 -45 -158 -49 -299 l-3 -101 786 -1 c433 0 794 -1 803 -1 10 -1
19 -13 23 -32 7 -38 65 -153 111 -221 50 -75 159 -182 237 -234 143 -95 288
-143 460 -150 176 -7 326 29 473 113 185 106 313 251 392 447 l31 79 800 0
800 0 -3 101 c-5 168 -25 259 -87 394 -107 232 -339 434 -571 497 l-63 17 0
666 c0 367 -3 699 -7 737 -39 412 -216 787 -507 1076 -96 95 -242 210 -323
256 -108 60 -225 116 -301 144 l-83 30 -2 58 c-6 217 -147 406 -355 475 -66
23 -208 29 -273 12z m169 -207 c29 -6 69 -20 88 -29 76 -39 143 -137 154 -224
4 -36 4 -37 -22 -32 -99 21 -388 29 -477 12 -100 -18 -94 -19 -90 11 16 128
105 229 227 259 68 16 59 16 120 3z m78 -484 c591 -43 1119 -460 1310 -1034
73 -218 72 -208 77 -998 l5 -713 -1069 0 -1068 0 -1 -105 c0 -65 4 -105 11
-106 5 -1 519 -2 1140 -3 l1130 -2 80 -28 c210 -74 366 -221 446 -421 15 -39
31 -89 34 -111 l7 -39 -2232 0 -2231 0 7 40 c17 108 98 257 187 348 93 93 163
137 293 182 76 27 87 28 284 29 113 1 211 5 217 9 9 6 13 38 12 108 l-1 99
-145 0 -144 0 4 708 c2 389 7 718 10 732 4 13 9 41 12 62 3 21 15 71 25 112
135 516 536 930 1041 1075 95 28 126 35 199 47 14 2 66 7 115 10 50 4 91 7 93
9 1 1 17 1 35 -1 17 -1 70 -5 117 -9z m483 -3774 c17 -1 14 -9 -18 -68 -249
-454 -873 -479 -1163 -48 -23 34 -45 73 -51 87 -9 24 -7 27 12 30 17 2 1143 1
1220 -1z"/>
</g>
</svg>
